<?xml version="1.0" encoding="utf-8"?>
<!-- Generator: Adobe Illustrator 16.0.4, SVG Export Plug-In . SVG Version: 6.00 Build 0)  -->
<!DOCTYPE svg PUBLIC "-//W3C//DTD SVG 1.1//EN" "http://www.w3.org/Graphics/SVG/1.1/DTD/svg11.dtd">
<svg version="1.1" xmlns="http://www.w3.org/2000/svg" xmlns:xlink="http://www.w3.org/1999/xlink" x="0px" y="0px" width="35px"
	 height="16px" viewBox="0 0 35 16" enable-background="new 0 0 35 16" xml:space="preserve">
<g id="Ebene_2">
</g>
<g id="Ebene_1">
	<polygon fill="#38C2F9" points="0.029,0 7.833,7 14.042,13.375 21.292,12.916 24.75,8.291 31.292,4.25 34.667,2.625 35,0 	"/>
	<g>
		<path fill="#59C8F5" d="M17.516,15.963c-5.743,0-8.657-3.395-10.997-6.122C4.29,7.244,2.891,5.775,0.029,5.775V0
			c5.743,0,8.657,3.395,10.997,6.122c2.229,2.597,3.629,4.065,6.489,4.065c2.859,0,4.261-1.469,6.488-4.065
			C26.344,3.395,29.257,0,35,0v5.775c-2.859,0-4.26,1.469-6.488,4.065C26.172,12.568,23.259,15.963,17.516,15.963z"/>
	</g>
</g>
</svg>
